<svg width="56" height="54" viewBox="0 0 56 54" fill="white" xmlns="http://www.w3.org/2000/svg">
<g clip-path="url(#clip0)">
<path fill-rule="evenodd" clip-rule="evenodd" d="M48.6818 26.9838C48.6818 38.3971 39.4295 47.6494 28.0162 47.6494C16.6029 47.6494 7.35059 38.3971 7.35059 26.9838C7.35059 15.5705 16.6029 6.31815 28.0162 6.31815C39.4295 6.31815 48.6818 15.5705 48.6818 26.9838ZM28.0162 45.474C38.2281 45.474 46.5065 37.1957 46.5065 26.9838C46.5065 16.7719 38.2281 8.49347 28.0162 8.49347C17.8043 8.49347 9.52591 16.7719 9.52591 26.9838C9.52591 37.1957 17.8043 45.474 28.0162 45.474Z" fill="white"/>
<path fill-rule="evenodd" clip-rule="evenodd" d="M44.3312 1.96747H53.0325V10.6688H44.3312V1.96747ZM46.5065 4.1428V8.49345H50.8572V4.1428H46.5065Z" fill="white"/>
<path fill-rule="evenodd" clip-rule="evenodd" d="M3 1.96747H11.7013V10.6688H3V1.96747ZM5.17533 4.1428V8.49345H9.52598V4.1428H5.17533Z" fill="white"/>
<path fill-rule="evenodd" clip-rule="evenodd" d="M44.3312 43.2987H53.0325V52H44.3312V43.2987ZM46.5065 45.474V49.8247H50.8572V45.474H46.5065Z" fill="white"/>
<path fill-rule="evenodd" clip-rule="evenodd" d="M3 43.2987H11.7013V52H3V43.2987ZM5.17533 45.474V49.8247H9.52598V45.474H5.17533Z" fill="white"/>
<path fill-rule="evenodd" clip-rule="evenodd" d="M6.26294 43.2987V10.6688H8.43827V43.2987H6.26294ZM11.7013 48.737V46.5617H44.3312V48.737H11.7013ZM49.7695 43.2987H47.5942V10.6688H49.7695V43.2987ZM46.5065 46.5617V48.737H46.5066V46.5617H46.5065ZM11.7013 7.4058H44.3312V5.23047H11.7013V7.4058ZM46.5065 5.23047H46.5066V7.4058H46.5065V5.23047Z" fill="white"/>
</g>
<defs>
<clipPath id="clip0">
<rect width="56" height="54" fill="white"/>
</clipPath>
</defs>
</svg>
